<svg width="1046" height="634" viewBox="0 0 1046 634" fill="none"
    xmlns="http://www.w3.org/2000/svg">
    <g id="Group 13">
        <path id="Subtract" fill-rule="evenodd" clip-rule="evenodd" d="M609.28 194.063C558.599 105.601 463.26 46 354 46C191.628 46 60 177.628 60 340C60 496.276 181.931 624.074 335.849 633.449C329.613 633.815 323.328 634 317 634C141.926 634 0 492.074 0 317C0 141.926 141.926 0 317 0C448.48 0 561.265 80.0457 609.28 194.063Z" fill="#810909"/>
        <path id="MARS" d="M477.832 343.28C484.744 343.28 488.2 346.832 488.2 353.936L496.552 542H471.208L464.008 364.304H457.96L413.608 510.896C412.072 516.656 408.424 519.536 402.664 519.536H379.912C373.96 519.536 370.12 516.656 368.392 510.896L324.04 364.304H318.28L311.368 542H286.024L293.8 353.936C294.184 346.832 297.736 343.28 304.456 343.28H333.256C338.632 343.28 342.184 346.16 343.912 351.92L381.064 473.168C382.6 477.584 383.848 482 384.808 486.416C385.96 490.832 387.208 495.344 388.552 499.952H393.736C395.08 495.344 396.328 490.832 397.48 486.416C398.632 482 399.88 477.392 401.224 472.592L438.376 351.92C439.912 346.16 443.56 343.28 449.32 343.28H477.832ZM620.379 343.28C625.563 343.28 628.731 345.584 629.883 350.192L693.819 542H667.611L648.027 479.792H566.235L546.651 542H520.443L584.379 350.192C585.531 345.584 588.699 343.28 593.883 343.28H620.379ZM598.203 378.992L573.147 457.904H641.115L616.059 378.992C615.291 376.304 614.427 373.616 613.467 370.928C612.699 368.048 611.931 365.36 611.163 362.864H603.099C602.331 365.36 601.563 368.048 600.795 370.928C600.027 373.616 599.163 376.304 598.203 378.992ZM790.319 340.688C805.679 340.688 818.063 342.416 827.471 345.872C836.879 349.136 843.695 354.896 847.919 363.152C852.335 371.408 854.543 383.024 854.543 398C854.543 414.128 851.663 426.32 845.903 434.576C840.335 442.64 831.023 447.536 817.967 449.264V450.704C822.959 452.048 827.759 455.024 832.367 459.632C836.975 464.24 840.335 470.768 842.447 479.216L861.743 542H834.671L817.103 479.792C814.607 472.304 811.247 467.024 807.023 463.952C802.799 460.688 797.327 459.056 790.607 459.056C781.391 459.056 773.135 459.056 765.839 459.056C758.735 458.864 752.399 458.768 746.831 458.768V542H721.775V343.28C729.071 342.512 735.887 341.936 742.223 341.552C748.559 341.168 755.471 340.976 762.959 340.976C770.639 340.784 779.759 340.688 790.319 340.688ZM789.743 362.576C781.295 362.576 773.423 362.672 766.127 362.864C758.831 362.864 752.399 362.864 746.831 362.864V437.168H789.743C799.535 436.976 807.215 435.824 812.783 433.712C818.543 431.6 822.671 427.856 825.167 422.48C827.663 416.912 828.911 409.232 828.911 399.44C828.911 389.648 827.663 382.16 825.167 376.976C822.671 371.6 818.543 367.856 812.783 365.744C807.215 363.632 799.535 362.576 789.743 362.576ZM955.102 339.824C964.51 340.016 974.206 340.496 984.19 341.264C994.174 342.032 1004.16 343.472 1014.14 345.584L1012.41 364.016C1004.16 363.632 995.038 363.344 985.054 363.152C975.07 362.768 965.47 362.576 956.254 362.576C946.654 362.576 938.878 363.056 932.926 364.016C927.166 364.976 922.942 367.568 920.254 371.792C917.566 376.016 916.222 383.024 916.222 392.816C916.222 403.76 918.142 411.44 921.982 415.856C926.014 420.08 932.446 423.248 941.278 425.36L981.598 435.44C996.958 439.088 1007.42 445.52 1012.99 454.736C1018.75 463.76 1021.63 475.952 1021.63 491.312C1021.63 506.48 1019.33 518 1014.72 525.872C1010.11 533.552 1002.91 538.736 993.118 541.424C983.326 544.112 970.654 545.456 955.102 545.456C948.574 545.456 940.03 545.168 929.47 544.592C919.102 544.016 907.102 542.48 893.47 539.984L895.198 521.264C906.526 521.648 915.646 522.032 922.558 522.416C929.47 522.608 935.422 522.704 940.414 522.704C945.406 522.704 950.59 522.704 955.966 522.704C966.142 522.704 974.11 521.936 979.87 520.4C985.822 518.864 989.95 515.792 992.254 511.184C994.75 506.576 995.998 499.76 995.998 490.736C995.998 483.056 995.134 477.104 993.406 472.88C991.678 468.656 988.894 465.488 985.054 463.376C981.406 461.072 976.702 459.248 970.942 457.904L929.758 447.536C915.358 443.888 905.182 437.552 899.23 428.528C893.47 419.504 890.59 407.408 890.59 392.24C890.59 376.688 892.894 365.264 897.502 357.968C902.11 350.48 909.118 345.584 918.526 343.28C928.126 340.976 940.318 339.824 955.102 339.824Z" fill="white"/>
        <path id="Eyes on" d="M353.696 286.776C356.853 286.776 360.053 286.797 363.296 286.84C366.581 286.84 369.696 286.947 372.64 287.16L372.384 291.576H354.656C352.096 291.576 350.816 292.984 350.816 295.8V305.4H369.888V309.944H350.816V322.04C350.816 323.533 351.115 324.621 351.712 325.304C352.352 325.987 353.333 326.328 354.656 326.328H372.384L372.64 330.68C369.696 330.851 366.581 330.957 363.296 331C360.053 331.043 356.853 331.064 353.696 331.064C351.093 331.064 349.024 330.381 347.488 329.016C345.995 327.608 345.227 325.731 345.184 323.384V294.456C345.227 292.067 345.995 290.189 347.488 288.824C349.024 287.459 351.093 286.776 353.696 286.776ZM382.789 299.832L391.045 323.064C391.258 323.704 391.471 324.344 391.685 324.984C391.898 325.581 392.069 326.2 392.197 326.84H393.093C393.349 326.2 393.583 325.56 393.797 324.92C394.01 324.237 394.223 323.619 394.437 323.064L402.565 299.832H408.453L395.973 332.728C395.29 334.563 394.373 336.333 393.221 338.04C392.111 339.747 390.661 341.155 388.869 342.264C387.119 343.416 384.943 344.056 382.341 344.184L381.829 340.6C384.346 339.789 386.287 338.701 387.653 337.336C389.018 335.971 390.106 334.307 390.917 332.344L391.493 331H390.213C389.189 331 388.549 330.531 388.293 329.592L376.965 299.832H382.789ZM427.105 299.064C431.798 299.064 435.19 299.917 437.281 301.624C439.414 303.331 440.481 305.869 440.481 309.24C440.523 312.013 439.947 314.189 438.753 315.768C437.558 317.304 435.659 318.072 433.057 318.072H418.593C418.763 320.547 419.211 322.445 419.937 323.768C420.705 325.048 421.771 325.944 423.137 326.456C424.502 326.925 426.251 327.16 428.385 327.16C430.049 327.16 431.862 327.096 433.825 326.968C435.83 326.797 437.622 326.605 439.201 326.392L439.777 330.04C438.795 330.424 437.579 330.744 436.129 331C434.721 331.256 433.249 331.448 431.713 331.576C430.219 331.704 428.875 331.768 427.681 331.768C424.097 331.768 421.217 331.235 419.041 330.168C416.865 329.059 415.265 327.309 414.241 324.92C413.259 322.488 412.769 319.288 412.769 315.32C412.769 311.224 413.259 308.003 414.241 305.656C415.265 303.267 416.822 301.581 418.913 300.6C421.046 299.576 423.777 299.064 427.105 299.064ZM427.361 303.672C425.185 303.672 423.457 303.971 422.177 304.568C420.939 305.165 420.022 306.211 419.425 307.704C418.87 309.155 418.55 311.203 418.465 313.848H431.649C433.057 313.848 433.974 313.379 434.401 312.44C434.827 311.459 435.041 310.392 435.041 309.24C434.998 307.235 434.401 305.805 433.249 304.952C432.097 304.099 430.134 303.672 427.361 303.672ZM459.048 299.064C461.096 299.107 463.314 299.213 465.704 299.384C468.093 299.512 470.248 299.725 472.168 300.024L471.72 303.992C469.757 303.907 467.773 303.843 465.768 303.8C463.805 303.715 461.842 303.672 459.88 303.672C457.96 303.629 456.445 303.672 455.336 303.8C454.226 303.928 453.416 304.269 452.904 304.824C452.434 305.379 452.2 306.317 452.2 307.64C452.2 309.261 452.584 310.328 453.352 310.84C454.12 311.352 455.25 311.779 456.744 312.12L465.832 314.168C468.306 314.765 470.12 315.683 471.272 316.92C472.466 318.157 473.064 320.099 473.064 322.744C473.064 325.304 472.573 327.224 471.592 328.504C470.653 329.784 469.202 330.637 467.24 331.064C465.277 331.491 462.781 331.704 459.752 331.704C458.642 331.704 456.978 331.661 454.76 331.576C452.584 331.491 450.173 331.235 447.528 330.808L447.911 326.84C449.448 326.925 451.112 327.011 452.904 327.096C454.738 327.139 456.658 327.139 458.664 327.096C461.01 327.096 462.845 326.989 464.168 326.776C465.49 326.563 466.429 326.157 466.984 325.56C467.538 324.92 467.816 323.981 467.816 322.744C467.816 321.208 467.368 320.184 466.472 319.672C465.576 319.16 464.381 318.733 462.888 318.392L453.928 316.344C451.41 315.747 449.597 314.787 448.488 313.464C447.421 312.141 446.888 310.2 446.888 307.64C446.888 305.208 447.314 303.373 448.168 302.136C449.021 300.899 450.344 300.067 452.135 299.64C453.928 299.213 456.232 299.021 459.048 299.064ZM508.614 299.064C512.198 299.064 515.056 299.597 517.19 300.664C519.366 301.731 520.923 303.48 521.862 305.912C522.8 308.301 523.27 311.48 523.27 315.448C523.27 319.416 522.8 322.616 521.862 325.048C520.923 327.437 519.366 329.165 517.19 330.232C515.056 331.299 512.198 331.832 508.614 331.832C505.072 331.832 502.214 331.299 500.038 330.232C497.904 329.165 496.347 327.437 495.366 325.048C494.427 322.616 493.958 319.416 493.958 315.448C493.958 311.48 494.427 308.301 495.366 305.912C496.347 303.48 497.904 301.731 500.038 300.664C502.214 299.597 505.072 299.064 508.614 299.064ZM508.614 303.672C506.352 303.672 504.56 304.035 503.238 304.76C501.958 305.443 501.04 306.637 500.486 308.344C499.931 310.051 499.654 312.419 499.654 315.448C499.654 318.477 499.931 320.845 500.486 322.552C501.04 324.259 501.958 325.475 503.238 326.2C504.56 326.883 506.352 327.224 508.614 327.224C510.875 327.224 512.667 326.883 513.99 326.2C515.312 325.475 516.251 324.259 516.806 322.552C517.36 320.845 517.638 318.477 517.638 315.448C517.638 312.419 517.36 310.051 516.806 308.344C516.251 306.637 515.312 305.443 513.99 304.76C512.667 304.035 510.875 303.672 508.614 303.672ZM536.413 299.832L536.797 304.76C539.143 302.925 541.469 301.517 543.773 300.536C546.119 299.555 548.445 299.064 550.749 299.064C556.381 299.064 559.197 301.923 559.197 307.64V331H553.757V309.176C553.757 307.085 553.415 305.656 552.733 304.888C552.05 304.077 550.898 303.672 549.277 303.672C547.442 303.672 545.586 304.12 543.708 305.016C541.874 305.869 539.719 307.043 537.245 308.536V331H531.805V299.832H536.413Z" fill="white"/>
    </g>
</svg>
